<svg xmlns="http://www.w3.org/2000/svg" xmlns:xlink="http://www.w3.org/1999/xlink" width="100%" height="100%" viewBox = " 0 -4.0144 100 100" preserveAspectRatio="xMinYMin meet">
<rect id="background" x="0" y="-4.0144" width="100" height="100" style="fill:none; stroke:none;" />
<path id ="3b6ff20c-9940-4e9b-81a0-42599b0a16be" d = " M 4.5455 62.9754  C 36.6058 63.0395 100.3644 65.1586 95.1537 47.2018  C 90.4385 30.9523 29.2457 -1.737 19.2654 5.11  C 6.6493 13.7653 75.8688 85.598 70.5968 87.7407  C 67.7792 88.8859 43.6836 70.1245 40.1483 54.5035  C 37.0556 40.8384 49.6971 29.5764 61.2405 19.5361 "  class="cls-1602070733" >  </path>
<path id ="b8bbb0a1-6c70-442d-be26-02f523f0bc5d" d = " M 0 64.6744  C 35.2663 64.7449 105.4008 67.0759 99.6691 47.3234  C 94.4823 29.449 27.1703 -6.5092 16.192 1.0224  C 2.3142 10.5432 78.4556 89.5593 72.6565 91.9162  C 69.5572 93.1759 43.0519 72.5384 39.1631 55.3553  C 35.7612 40.3236 49.6668 27.9355 62.3645 16.8911 "  class="cls-116291897" >  </path>
<defs>
<style> .cls-1602070733{stroke:#333333 ; stroke-opacity:1; stroke-width:3; stroke-linecap:round; stroke-linejoin:round; fill:none; } </style>
<style> .cls-116291897{stroke:none; stroke-linecap:round; stroke-linejoin:round; fill:none; } </style>
</defs>
</svg>