<svg xmlns="http://www.w3.org/2000/svg" xmlns:xlink="http://www.w3.org/1999/xlink" width="100%" height="100%" viewBox = " 0 -7.456 100 50" preserveAspectRatio="xMinYMin meet">
<rect id="background" x="0" y="-7.456" width="100" height="50" style="fill:none; stroke:none;" />
<path id ="1a9104ed-4d2f-4133-8ba5-de0afae01ff2" d = " M 4.5454 18.1238  C 4.9735 18.7749 5.629 19.6464 6.1983 19.7767  C 7.6499 20.1088 8.5419 15.6223 9.5041 14.818  C 11.0602 13.5174 12.7997 21.8472 14.4628 23.0825  C 16.7623 24.7905 18.9155 12.9355 21.0743 11.5122  C 23.8312 9.6948 26.5971 24.8892 29.3388 26.3883  C 32.6755 28.2127 35.9764 9.7526 39.2561 8.2065  C 43.1208 6.3845 46.9562 28.0482 50.8264 29.694  C 55.2825 31.589 59.7848 6.9467 64.0495 4.9007  C 68.875 2.5856 73.3963 29.2002 78.9255 32.9998  C 85.0973 37.241 92.525 13.0562 95.4544 1.5949 "  class="cls-2146805965" >  </path>
<path id ="15e0dff9-221c-44fe-805a-1de914a36e4f" d = " M 0 18.1818  C 0.4709 18.898 1.1919 19.8567 1.8182 20  C 3.4149 20.3653 4.3961 15.4301 5.4545 14.5454  C 7.1662 13.1147 9.0797 22.2775 10.9091 23.6363  C 13.4385 25.5151 15.8071 12.4746 18.1818 10.9091  C 21.2143 8.9099 24.2568 25.6237 27.2727 27.2727  C 30.9431 29.2796 34.5741 8.9735 38.1818 7.2727  C 42.4329 5.2686 46.6518 29.0986 50.909 30.909  C 55.8107 32.9935 60.7633 5.887 65.4544 3.6364  C 70.7625 1.0898 75.7359 30.3658 81.8181 34.5454  C 88.6071 39.2108 96.7776 12.6074 99.9998 0 "  class="cls-116291897" >  </path>
<defs>
<style> .cls-2146805965{stroke:#333333 ; stroke-opacity:1; stroke-width:2; stroke-linecap:round; stroke-linejoin:round; fill:none; } </style>
<style> .cls-116291897{stroke:none; stroke-linecap:round; stroke-linejoin:round; fill:none; } </style>
</defs>
</svg>